<svg width="96" height="96" viewBox="0 0 96 96" fill="none" xmlns="http://www.w3.org/2000/svg">
<path fill-rule="evenodd" clip-rule="evenodd" d="M28.1854 10.081C29.0086 7.64193 31.2961 5.99976 33.8703 5.99976H36.9987H38.4459L38.446 6.00005H62.1284C64.7027 6.00005 66.9901 7.64222 67.8133 10.0813L92.1131 82.0807C93.4258 85.97 90.533 89.9994 86.4282 89.9994H59.0001V89.973C58.8125 89.9904 58.6218 89.9994 58.4285 89.9994H58.3233C57.0345 89.9994 55.7799 89.5844 54.7454 88.8158L36.4266 75.2076L32.812 85.9178C31.9888 88.3569 29.7014 89.9991 27.1271 89.9991H9.57056C5.46579 89.9991 2.57303 85.9697 3.88564 82.0804L28.1854 10.081ZM23.4277 60.5684L57.1306 85.6049C57.4755 85.8611 57.8937 85.9994 58.3233 85.9994H58.4285C59.7967 85.9994 60.761 84.6563 60.3234 83.3598L46.9041 43.5989L41.2017 58.759L40.7142 60.0549H39.3297H22.7397L23.4277 60.5684ZM86.4282 85.9994H64.0881C64.5181 84.7919 64.568 83.4279 64.1134 82.0807L39.8136 10.0813C39.8044 10.0541 39.795 10.027 39.7855 10H62.1284C62.9865 10 63.749 10.5474 64.0234 11.3604L88.3232 83.3598C88.7607 84.6563 87.7965 85.9994 86.4282 85.9994Z" fill="black"/>
</svg>
